:SAMPLES-PER-SECOND 30
:FULLY-SPECIFIED
:DEGREES
251
root  -62.1499 39.859 4.20142 174.949 -84.5992 -177.325
RightUpLeg  -14.4594 12.0475 -10.27
RightLeg  21.8282 3.32877 1.26945
RightFoot  -8.67625 -0.310658 10.597
RightToes  4.6566e-010 0 -3.6325e-017
Spine  14.4541 0.421877 7.29805
Spine1  7.36019 3.54982 -9.21558
HEad  -15.022 -4.25765 -0.900722
LeftShoulder1  1.54538 -2.90581 -17.4657
LeftArm  -18.7662 -65.6286 -37.6847
LeftForeArm  -17.9911 -27.1864 -6.73589
LeftHand  -0.0904724 8.12499 -1.85059
RightShoulder  0.810501 2.39732 6.02631
RightArm  -32.5784 65.2703 18.7817
RightForeArm  -39.62 9.6397 0.685611
RightHand  0.144903 0.223957 2.98326
LeftUpLeg  -15.373 6.21167 -3.10131
LeftLeg  18.0221 -9.88679 -3.75858
LeftFoot  2.57336 -1.04794 8.44265
LeftToes  -4.59298e-010 2.08438e-011 -1.27151e-011
252
root  -62.4097 39.8828 3.98757 174.147 -86.0964 -176.025
RightUpLeg  -13.9186 15.174 -10.5915
RightLeg  17.2382 7.08995 2.08358
RightFoot  -5.72072 -0.582506 11.2448
RightToes  4.6566e-010 0 -3.6325e-017
Spine  13.9161 0.295205 6.94837
Spine1  7.71244 3.24211 -8.61782
HEad  -14.8755 -4.61287 -0.868833
LeftShoulder1  1.60443 -2.97343 -18.183
LeftArm  -17.8217 -65.1307 -38.0784
LeftForeArm  -18.4723 -28.9176 -7.18548
LeftHand  -0.0900429 7.87678 -2.06232
RightShoulder  0.814584 2.22742 6.57389
RightArm  -32.0198 62.9245 19.574
RightForeArm  -40.2265 12.9027 1.30964
RightHand  0.193523 0.977588 3.43954
LeftUpLeg  -15.7779 6.04014 -3.07758
LeftLeg  18.5794 -11.1576 -4.16305
LeftFoot  2.27075 -0.984917 8.12277
LeftToes  -4.59298e-010 2.08438e-011 -1.27151e-011
253
root  -62.6178 39.944 3.77335 171.765 -87.4933 -173.595
RightUpLeg  -13.1443 15.3501 -9.92775
RightLeg  15.2789 11.8236 2.58605
RightFoot  -2.64917 -0.785267 10.0317
RightToes  4.6566e-010 0 -3.6325e-017
Spine  13.6078 0.098833 6.70091
Spine1  8.39317 2.85845 -7.91644
HEad  -14.7434 -4.4177 -0.821294
LeftShoulder1  1.57631 -2.9339 -17.8747
LeftArm  -17.4767 -64.3405 -38.8962
LeftForeArm  -17.9537 -30.5738 -7.59109
LeftHand  -0.0864558 7.49805 -2.32064
RightShoulder  0.829635 1.9475 7.70365
RightArm  -34.6435 60.8219 20.3619
RightForeArm  -37.2658 16.967 2.65279
RightHand  0.230862 1.37389 3.84436
LeftUpLeg  -15.5147 5.49104 -2.89916
LeftLeg  18.5646 -12.0723 -4.33957
LeftFoot  2.22088 -0.927047 7.67062
LeftToes  -4.59298e-010 2.08438e-011 -1.27151e-011
254
root  -62.7628 39.9195 3.46427 169.752 -88.9708 -171.77
RightUpLeg  -12.3524 15.6517 -9.61163
RightLeg  15.463 10.5008 2.18583
RightFoot  -4.4358 -0.638109 10.0441
RightToes  4.6566e-010 0 -3.6325e-017
Spine  13.5205 0.0016764 5.83135
Spine1  9.15347 2.49796 -7.15011
HEad  -15.2242 -4.29103 -0.936397
LeftShoulder1  1.55141 -2.86016 -17.7554
LeftArm  -17.5709 -63.4375 -39.1922
LeftForeArm  -17.3234 -32.7952 -8.1592
LeftHand  -0.0931697 7.68146 -2.41469
RightShoulder  0.821406 1.66573 8.4655
RightArm  -38.8513 58.3235 21.2927
RightForeArm  -32.4254 21.3569 5.00661
RightHand  0.191623 1.04477 3.37006
LeftUpLeg  -15.5922 4.82911 -2.74846
LeftLeg  19.4951 -12.9462 -4.77169
LeftFoot  2.01796 -0.887093 7.45883
LeftToes  -4.59298e-010 2.08438e-011 -1.27151e-011
255
root  -62.8375 39.9391 3.14362 153.535 -89.7427 -155.246
RightUpLeg  -12.6621 15.1026 -9.31252
RightLeg  16.1163 10.3891 2.51468
RightFoot  -4.61155 -0.595684 9.57541
RightToes  4.6566e-010 0 -3.6325e-017
Spine  13.6278 0.0600645 5.35343
Spine1  8.92954 2.34643 -6.55799
HEad  -15.5379 -3.96145 -1.07129
LeftShoulder1  1.46628 -2.51875 -17.7227
LeftArm  -17.7114 -62.3004 -39.1554
LeftForeArm  -16.6458 -34.8506 -8.71593
LeftHand  -0.100978 7.70103 -2.767
RightShoulder  0.819617 1.38583 9.44614
RightArm  -40.1452 56.1303 22.7191
RightForeArm  -29.8278 26.1285 7.06609
RightHand  0.150484 1.02371 2.63101
LeftUpLeg  -16.1045 4.67304 -2.31727
LeftLeg  20.0412 -13.7134 -5.16318
LeftFoot  2.07593 -0.794303 6.63786
LeftToes  -4.59298e-010 2.08438e-011 -1.27151e-011
256
root  -62.9074 39.9841 2.82526 -29.3561 -89.9623 27.1488
RightUpLeg  -12.4991 15.7701 -9.12259
RightLeg  17.0152 10.6397 3.21476
RightFoot  -4.50348 -0.622155 9.8751
RightToes  4.6566e-010 0 -3.6325e-017
Spine  13.7004 0.20441 5.36041
Spine1  9.94363 2.56225 -6.55869
HEad  -16.3399 -3.40761 -1.61984
LeftShoulder1  1.45182 -2.3251 -18.3283
LeftArm  -17.6936 -61.29 -38.6023
LeftForeArm  -17.0001 -37.1168 -9.41832
LeftHand  -0.092943 7.78786 -2.27281
RightShoulder  0.795781 1.17149 9.73643
RightArm  -39.1073 54.209 23.5864
RightForeArm  -30.3944 30.6846 8.15437
RightHand  0.111679 0.661428 2.0769
LeftUpLeg  -15.669 4.70704 -1.73439
LeftLeg  20.4458 -14.3523 -5.52716
LeftFoot  2.21151 -0.689006 5.68191
LeftToes  -4.59298e-010 2.08438e-011 -1.27151e-011
257
root  -62.9261 39.981 2.47521 3.867 -89.1196 -6.01964
RightUpLeg  -13.0288 16.5443 -9.17806
RightLeg  18.2638 12.3542 4.33079
RightFoot  -4.81609 -0.581683 9.61631
RightToes  4.6566e-010 0 -3.6325e-017
Spine  13.7974 0.181087 4.99872
Spine1  9.78685 2.34126 -6.01382
HEad  -16.4894 -1.97703 -3.10211
LeftShoulder1  1.43901 -2.13681 -18.9738
LeftArm  -17.191 -59.8894 -37.7717
LeftForeArm  -17.2427 -39.1021 -10.0786
LeftHand  -0.0798677 7.35573 -2.16596
RightShoulder  0.793636 1.1568 9.75759
RightArm  -38.3047 51.7582 25.1541
RightForeArm  -28.665 35.5257 9.47171
RightHand  0.084561 0.139923 1.77958
LeftUpLeg  -16.2433 4.502 -1.20455
LeftLeg  21.3544 -15.1735 -6.12093
LeftFoot  2.40541 -0.546269 4.40806
LeftToes  -4.59298e-010 2.08438e-011 -1.27151e-011
258
root  -62.9487 39.9765 2.09158 -6.48161 -87.7755 4.03145
RightUpLeg  -12.9151 18.3132 -9.29676
RightLeg  19.4953 14.414 5.402
RightFoot  -5.80285 -0.505438 9.58876
RightToes  4.6566e-010 0 -3.6325e-017
Spine  13.7574 -0.0948909 4.65511
Spine1  10.0321 1.98766 -5.944
HEad  -16.4231 -1.26648 -3.63647
LeftShoulder1  1.44463 -2.08829 -19.3237
LeftArm  -17.2334 -57.9213 -37.6157
LeftForeArm  -16.7845 -41.455 -10.8711
LeftHand  -0.0915788 7.74957 -2.26373
RightShoulder  0.775702 0.841272 10.667
RightArm  -36.855 49.7892 26.0244
RightForeArm  -28.0464 40.0349 10.9185
RightHand  0.0581175 -0.119147 1.26644
LeftUpLeg  -16.1921 4.09578 -0.858273
LeftLeg  21.7719 -16.2042 -6.6823
LeftFoot  2.63598 -0.46312 3.64638
LeftToes  -4.59298e-010 2.08438e-011 -1.27151e-011
259
root  -62.9644 39.9695 1.66415 -9.06033 -85.8594 6.31605
RightUpLeg  -12.5425 20.0079 -9.3969
RightLeg  20.7884 16.2594 6.5109
RightFoot  -6.95319 -0.378982 8.65423
RightToes  4.6566e-010 0 -3.6325e-017
Spine  13.4619 -0.42148 3.97788
Spine1  10.3302 1.43445 -5.51706
HEad  -16.2052 -0.618854 -3.96686
LeftShoulder1  1.43613 -1.98116 -19.6957
LeftArm  -16.5932 -56.4006 -37.6985
LeftForeArm  -16.4687 -43.3748 -11.575
LeftHand  -0.0829025 7.60278 -1.9756
RightShoulder  0.746814 0.588462 11.1353
RightArm  -35.1528 47.6381 27.276
RightForeArm  -30.0056 43.9195 12.4743
RightHand  -0.0237143 -0.783219 -0.484199
LeftUpLeg  -16.1346 3.03354 -0.669799
LeftLeg  21.9769 -17.0689 -7.1138
LeftFoot  2.99383 -0.380381 2.88154
LeftToes  -4.59298e-010 2.08438e-011 -1.27151e-011
260
root  -62.9671 39.9448 1.15926 -10.8341 -83.4539 7.77161
RightUpLeg  -11.68 20.0425 -9.30811
RightLeg  21.5365 17.4489 7.24338
RightFoot  -8.47563 -0.259946 8.02199
RightToes  4.6566e-010 0 -3.6325e-017
Spine  12.9396 -0.701586 3.06134
Spine1  11.0176 0.909628 -5.05404
HEad  -16.1795 -0.404512 -4.11642
LeftShoulder1  1.42544 -2.01296 -19.3267
LeftArm  -16.0387 -55.0229 -38.5002
LeftForeArm  -15.5196 -45.198 -12.2564
LeftHand  -0.0593752 7.01804 -1.62983
RightShoulder  0.66672 -0.0342387 12.2275
RightArm  -35.1298 45.2541 27.8567
RightForeArm  -25.6336 48.1171 14.1329
RightHand  0.0384384 -0.466217 0.975812
LeftUpLeg  -16.0742 1.22694 -0.550257
LeftLeg  21.9669 -17.7268 -7.3879
LeftFoot  3.42962 -0.263854 1.87388
LeftToes  -4.59298e-010 2.08438e-011 -1.27151e-011
